# xmcd
# 
# Track frame offsets:
#     183
#     17745
#     30033
#     49503
#     63280
#     78413
#     94175
#     106583
#     121920
# 
# Disc length: 1832
# 
# Revision: 0
# Processed by: cddbd v1.5.2PL0 Copyright (c) Steve Scherf et al.
# Submitted via: BonkEnc v1.0.8
# 
DISCID=59072609
DTITLE=Peter H. Gantry - No Set Ways
DYEAR=0
DGENRE=Country
TTITLE0=Truckin'the Autobahn
TTITLE1=Has Anyone Told Me
TTITLE2=Thanking God
TTITLE3=Step Into the Water
TTITLE4=God Help Me Now
TTITLE5=Got My Blues
TTITLE6=Yellow Rose of Texas
TTITLE7=House of the Rising Sun
TTITLE8=On Top of Old Smokey
EXTD=
EXTT0=
EXTT1=
EXTT2=
EXTT3=
EXTT4=
EXTT5=
EXTT6=
EXTT7=
EXTT8=
PLAYORDER=
